<svg width="256" height="256" viewBox="0 0 256 256" fill="none" xmlns="http://www.w3.org/2000/svg">
<rect width="256" height="256" fill="#F5F900"/>
<path fill-rule="evenodd" clip-rule="evenodd" d="M104.38 110.022V166.4L135.489 166.112C138.946 166.112 142.114 165.825 144.418 165.249C146.723 164.674 148.739 163.524 149.891 162.085C150.755 160.647 151.332 158.921 151.332 156.62C151.332 152.881 149.891 150.58 147.299 148.566C145.571 147.128 143.266 145.69 140.386 143.964L131.745 138.787C126.56 135.622 122.239 131.883 122.239 123.829C122.239 116.926 125.408 113.474 129.152 109.735L134.049 105.42C136.641 103.407 138.946 100.818 138.946 97.3663C138.946 94.7775 137.793 92.764 135.201 91.6135C132.897 90.4629 129.44 89.6 125.12 89.6C119.071 89.6 113.886 90.7506 110.141 93.9146C106.397 97.3663 104.38 102.256 104.38 110.022ZM75 192V106.571C75 94.2022 78.4565 84.9978 84.2174 78.382C93.1467 68.027 107.549 64 124.255 64C155.076 64 168.038 78.0944 168.038 93.0517C168.038 98.8045 166.022 104.27 161.125 109.16L155.652 114.337C153.06 116.926 151.908 118.364 151.908 120.665C151.908 122.679 153.06 124.117 154.5 125.267C155.94 126.418 157.957 127.281 160.261 128.719L166.022 132.458C172.935 136.485 181 143.101 181 158.634C181 182.796 161.989 192 139.522 192H75Z" fill="black"/>
</svg>
